# xmcd
#
# Track frame offsets: 
#        150
#        18800
#        49047
#        73337
#        99312
#        124062
#
# Disc length: 1892 seconds
#
# Revision: 1
# Processed by: cddbd v1.5.2PL0 Copyright (c) Steve Scherf et al.
# Submitted via: ExactAudioCopy v0.99pb5
#
DISCID=48076206
DTITLE=Janet Jackson - Together Again [CDS]
DYEAR=1997
DGENRE=Dance
TTITLE0=Together Again [Radio Edit]
TTITLE1=Together Again [Tony Humphries Club Mix]
TTITLE2=Together Again [DJ Premier 100 In A 50 Remix]
TTITLE3=Together Again [Jimmy Jam Deep Remix]
TTITLE4=Together Again [Tony Moran 7'' Edit w/ Janet Vocal Intro]
TTITLE5=Together Again [Jimmy Jam Deeper Radio Edit]
EXTD=
EXTT0=
EXTT1=
EXTT2=
EXTT3=
EXTT4=
EXTT5=
PLAYORDER=
